<?xml version="1.0" encoding="UTF-8"?>
<!DOCTYPE svg PUBLIC "-//W3C//DTD SVG 1.1//EN" "http://www.w3.org/Graphics/SVG/1.1/DTD/svg11.dtd">
<!-- Creator: CorelDRAW -->
<svg xmlns="http://www.w3.org/2000/svg" xml:space="preserve" width="135.467mm" height="135.467mm" style="shape-rendering:geometricPrecision; text-rendering:geometricPrecision; image-rendering:optimizeQuality; fill-rule:evenodd; clip-rule:evenodd"
viewBox="0 0 135.467 135.467"
 xmlns:xlink="http://www.w3.org/1999/xlink">
 <defs>
  <style type="text/css">
   <![CDATA[
    .str1 {stroke:#70BAE8;stroke-width:4.2333;stroke-linecap:round}
    .str0 {stroke:#F7C37A;stroke-width:4.2333;stroke-linecap:round}
    .fil0 {fill:none}
    .fil2 {fill:#70BAE8}
    .fil1 {fill:#F7C37A}
    .fil3 {fill:#70BAE8;fill-rule:nonzero}
   ]]>
  </style>
 </defs>
 <g id="Capa_x0020_1">
  <metadata id="CorelCorpID_0Corel-Layer"/>
  <g id="_378759368">
   <path id="_378759632" class="fil0 str0" d="M81.5226 8.4026c0.9979,0.2773 1.9852,0.5905 2.9604,0.939 22.41,8.0086 34.0846,32.6676 26.076,55.0776 -8.0085,22.4099 -32.6676,34.0845 -55.0775,26.076 -9.4696,-3.3842 -17.4574,-9.9737 -22.5798,-18.6275"/>
   <path id="_378759464" class="fil0 str1" d="M27.2989 54.01c-0.5683,-6.2343 0.2286,-12.5175 2.3353,-18.4125 5.0094,-14.0177 16.8993,-24.4571 31.4473,-27.6109"/>
   <circle id="_378759608" class="fil1" transform="matrix(-1.27646 -0.456163 0.456163 -1.27646 69.9823 49.9184)" r="9.9219"/>
   <circle id="_378759176" class="fil2" transform="matrix(-0.360178 -0.128716 0.128716 -0.360178 29.9386 62.6134)" r="9.9219"/>
   <circle id="_378759560" class="fil2" transform="matrix(-0.371681 -0.132826 0.132826 -0.371681 71.5698 7.27604)" r="9.9219"/>
  </g>
  <path class="fil3" d="M39.7817 114.161c0,6.0884 -2.1431,9.1348 -6.4205,9.1348 -2.1298,0 -3.7327,-0.7793 -4.8131,-2.3291 -1.0849,-1.5542 -1.6251,-3.8212 -1.6251,-6.8057 0,-6.0795 2.1431,-9.1215 6.4249,-9.1215 2.09,0 3.6885,0.7616 4.7866,2.2848 1.0981,1.5232 1.6472,3.7992 1.6472,6.8367zm-4.1002 0c0,-2.3866 -0.186,-3.9762 -0.558,-4.7688 -0.3719,-0.7882 -0.9653,-1.1867 -1.7756,-1.1867 -0.8058,0 -1.3948,0.3985 -1.7667,1.1955 -0.3719,0.7971 -0.5579,2.3822 -0.5579,4.76 0,2.3336 0.186,3.9143 0.5535,4.7335 0.3675,0.8236 0.9564,1.2354 1.7711,1.2354 0.8015,0 1.3948,-0.3941 1.7668,-1.1823 0.3764,-0.7882 0.5668,-2.3822 0.5668,-4.7866z"/>
  <path id="1" class="fil3" d="M42.4916 105.314l5.5658 0c1.0805,0 1.9085,0.0487 2.4841,0.1505 0.5756,0.0974 1.1557,0.3675 1.7446,0.8015 0.5889,0.4383 1.0494,1.0361 1.3815,1.7933 0.3321,0.7571 0.5004,1.6029 0.5004,2.546 0,2.214 -0.8325,3.7726 -2.4929,4.6715l3.2589 7.7444 -4.2419 0 -2.3646 -7.005 -1.9438 0 0 7.005 -3.8921 0 0 -17.7072zm3.8921 2.8648l0 4.9681 1.7136 0c1.5188,0 2.2804,-0.8501 2.2804,-2.5549 0,-0.5844 -0.1107,-1.0671 -0.3365,-1.4435 -0.2259,-0.3763 -0.4871,-0.6332 -0.7838,-0.766 -0.3011,-0.1328 -0.7395,-0.2037 -1.3195,-0.2037l-1.5542 0z"/>
  <path id="12" class="fil3" d="M56.9709 105.314l6.0441 0c1.4169,0 2.4884,0.1107 3.2102,0.3365 0.7217,0.2258 1.3284,0.7173 1.8154,1.4789 0.4915,0.7616 0.7351,1.7092 0.7351,2.8427 0,1.9793 -0.8413,3.2501 -2.5284,3.8125 2.0059,0.7084 3.0066,2.1564 3.0066,4.3438 0,1.1512 -0.2701,2.1254 -0.8147,2.9135 -0.5447,0.7926 -1.2177,1.3195 -2.0192,1.5852 -0.797,0.2613 -1.935,0.3941 -3.405,0.3941l-6.0441 0 0 -17.7072zm3.7371 7.1466l1.2575 0c1.2531,0 2.0413,-0.2258 2.369,-0.673 0.3232,-0.4517 0.4826,-0.9653 0.4826,-1.5454 0,-0.5357 -0.1594,-1.014 -0.4826,-1.4302 -0.3277,-0.4206 -1.0184,-0.6332 -2.0856,-0.6332l-1.5409 0 0 4.2818zm0 7.5142l1.904 0c1.7933,0 2.6878,-0.7705 2.6878,-2.3114 0,-0.8546 -0.2214,-1.4612 -0.6687,-1.811 -0.4472,-0.3498 -1.1202,-0.5225 -2.0191,-0.5225l-1.904 0 0 4.6449z"/>
  <path id="123" class="fil3" d="M75.0279 105.314l3.9187 0 5.0566 17.7072 -3.9806 0 -0.8812 -3.6575 -4.9814 0 -0.8723 3.6575 -3.5778 0 5.318 -17.7072zm3.374 11.0122l-1.78 -7.2264 -1.7224 7.2264 3.5024 0z"/>
  <polygon id="1234" class="fil3" points="85.3405,105.314 89.6577,105.314 94.214,116.313 94.214,105.314 97.2206,105.314 97.2206,123.021 93.7446,123.021 88.347,110.203 88.347,123.021 85.3405,123.021 "/>
  <path id="12345" class="fil3" d="M104.044 105.314l3.9187 0 5.0566 17.7072 -3.9806 0 -0.8812 -3.6575 -4.9814 0 -0.8723 3.6575 -3.5778 0 5.318 -17.7072zm3.374 11.0122l-1.78 -7.2264 -1.7224 7.2264 3.5024 0z"/>
 </g>
</svg>
